<svg xmlns="http://www.w3.org/2000/svg" viewBox="0 0 402 402"><defs><style>.cls-1,.cls-8{fill:#fff;}.cls-1,.cls-2,.cls-3,.cls-4,.cls-5,.cls-6,.cls-7{stroke:#092286;stroke-linecap:round;stroke-linejoin:round;stroke-width:2px;}.cls-2{fill:#e8a6bc;}.cls-3{fill:#18675d;}.cls-4{fill:none;}.cls-5{fill:#e6e6e8;}.cls-6{fill:#2f58ac;}.cls-7{fill:#e04036;}</style></defs><g id="Layer_2" data-name="Layer 2"><g id="Layer_5" data-name="Layer 5"><circle class="cls-1" cx="201" cy="201" r="200"/><circle class="cls-2" cx="201" cy="201" r="151.46"/><circle class="cls-3" cx="201" cy="201" r="110"/><line class="cls-4" x1="201" y1="201" x2="93.94" y2="93.94"/><line class="cls-4" x1="201" y1="200.14" x2="289.97" y2="111.17"/><line class="cls-4" x1="201" y1="200.14" x2="271.11" y2="270.25"/><line class="cls-4" x1="201" y1="200.14" x2="113.57" y2="287.57"/><circle class="cls-5" cx="291.12" cy="110.88" r="46.79"/><circle class="cls-2" cx="105.8" cy="296.2" r="51.43"/><circle class="cls-3" cx="91" cy="91" r="35.73"/><circle class="cls-6" cx="270.68" cy="270.68" r="21.23"/><rect class="cls-7" x="324.85" y="227.16" width="47.68" height="16.07" rx="8.03" transform="translate(257.09 -175.31) rotate(43.42)"/><rect class="cls-7" x="35.22" y="161.55" width="28.63" height="9.65" rx="4.82" transform="translate(-45.05 20.82) rotate(-16.44)"/><path class="cls-1" d="M269.87,91.38h26.51a0,0,0,0,1,0,0v9.54a0,0,0,0,1,0,0H267.55a0,0,0,0,1,0,0V93.71A2.33,2.33,0,0,1,269.87,91.38Z" transform="translate(47.8 -88.01) rotate(19.35)"/><rect class="cls-7" x="274.22" y="86.54" width="46.91" height="30.28" transform="translate(14.67 -35.65) rotate(7.03)"/><rect class="cls-6" x="273.79" y="90" width="46.91" height="30.28" transform="translate(87.59 -130.35) rotate(28.84)"/><path class="cls-1" d="M287.6,95.05l-1,2.85-16.52-5.8a1.86,1.86,0,0,0-2.37,1.14L257,123.63a1.86,1.86,0,0,0,1.14,2.37l42,14.74a1.87,1.87,0,0,0,2.38-1.14l11.29-32.14,1-2.85a1.86,1.86,0,0,0-1.14-2.37L290,93.91A1.86,1.86,0,0,0,287.6,95.05Z"/><rect class="cls-2" x="95" y="315.41" width="101.57" height="75.69" rx="8.47"/><rect class="cls-7" x="95" y="301.42" width="101.57" height="75.69" rx="8.47"/><rect class="cls-3" x="117.97" y="310.99" width="5.4" height="56.56" rx="2.7"/><circle class="cls-5" cx="120.67" cy="319.41" r="8.42"/><rect class="cls-3" x="143.08" y="310.99" width="5.4" height="56.56" rx="2.7"/><circle class="cls-5" cx="145.79" cy="347.69" r="8.42"/><rect class="cls-3" x="168.2" y="310.99" width="5.4" height="56.56" rx="2.7"/><circle class="cls-5" cx="170.9" cy="333.08" r="8.42"/><rect class="cls-6" x="206.07" y="28.07" width="36.59" height="36.59" transform="translate(3.14 105.95) rotate(-26.75)"/><circle class="cls-5" cx="201" cy="201" r="59.21"/><path class="cls-8" d="M235.79,192.94a31.23,31.23,0,0,0-62.45-.2l-6.73,13.84a3.89,3.89,0,0,0,3.5,5.6h4v14.46a4.45,4.45,0,0,0,4.45,4.45h13.65v9.19h27.1V220.47A31.22,31.22,0,0,0,235.79,192.94Z"/><path class="cls-4" d="M235.79,192.94a31.23,31.23,0,0,0-62.45-.2l-6.73,13.84a3.89,3.89,0,0,0,3.5,5.6h4v14.46a4.45,4.45,0,0,0,4.45,4.45h13.65v9.19h27.1V220.47A31.22,31.22,0,0,0,235.79,192.94Z"/><circle class="cls-1" cx="166.21" cy="123.34" r="7.91"/><circle class="cls-1" cx="117.97" cy="184.06" r="12.53"/><rect class="cls-3" x="249.45" y="318.16" width="21.23" height="43.11" transform="translate(103.24 -58.34) rotate(15.93)"/><polygon class="cls-7" points="86.66 97.22 77.52 89.57 71.4 96.88 80.54 104.53 87.85 110.65 93.97 103.34 112.3 81.45 104.99 75.33 86.66 97.22"/></g></g></svg>